<?xml version="1.0" encoding="iso-8859-1"?>
<!-- Generator: Adobe Illustrator 17.1.0, SVG Export Plug-In . SVG Version: 6.00 Build 0)  -->
<!DOCTYPE svg PUBLIC "-//W3C//DTD SVG 1.1//EN" "http://www.w3.org/Graphics/SVG/1.1/DTD/svg11.dtd">
<svg version="1.1" id="Capa_1" xmlns="http://www.w3.org/2000/svg" xmlns:xlink="http://www.w3.org/1999/xlink" x="0px" y="0px"
	 viewBox="0 0 439.851 439.851" style="enable-background:new 0 0 439.851 439.851;" xml:space="preserve">
<path id="XMLID_334_" d="M284.532,278.199c8.882,0,17.006-4.088,21.73-10.934c8.832-12.794,2.105-27.091-2.807-37.529
	c0,0-25.189-51.526-26.508-54.292c-11.162-23.404-17.487-35.257-23.246-39.322c-4.584-3.234-9.979-4.943-15.6-4.943
	s-11.015,1.709-15.604,4.945c-5.755,4.063-12.078,15.911-23.235,39.305c-1.322,2.771-26.52,54.313-26.52,54.313
	c-4.91,10.437-11.634,24.731-2.804,37.521c4.724,6.848,12.848,10.937,21.73,10.937c7.388,0,14.896-3.434,22.846-7.07
	c7.935-3.629,16.14-7.381,23.586-7.438c7.446,0.057,15.651,3.81,23.585,7.438C269.636,274.765,277.145,278.199,284.532,278.199z
	 M238.102,245.691c-0.017,0-0.033,0-0.049,0c-11.328,0.062-21.792,4.847-31.023,9.069c-5.847,2.674-11.893,5.439-15.36,5.439
	c-2.921,0-5.57-1.21-6.916-3.16c-2.744-3.975-0.088-10.355,4.277-19.635c0,0,25.119-51.375,26.479-54.227
	c3.405-7.14,13.716-28.758,17.53-32.458c2.996-2.017,7.133-2.015,10.124,0c3.815,3.701,14.131,25.331,17.538,32.474
	c1.357,2.845,26.468,54.206,26.468,54.206c4.368,9.282,7.025,15.664,4.279,19.642c-1.344,1.948-3.994,3.159-6.916,3.159
	c-3.466,0-9.512-2.765-15.358-5.438c-9.231-4.222-19.694-9.008-31.023-9.07C238.134,245.691,238.118,245.691,238.102,245.691z
	 M255.386,289.331c4.151,2.734,5.298,8.316,2.563,12.467c-1.729,2.625-4.599,4.049-7.523,4.049c-1.7,0-3.418-0.48-4.943-1.486
	c-2.874-1.894-5.356-2.886-7.381-2.951c-2.026,0.065-4.509,1.057-7.384,2.951c-4.151,2.733-9.733,1.586-12.467-2.564
	c-2.734-4.15-1.586-9.732,2.564-12.467c5.932-3.908,11.546-5.845,17.164-5.921c0.082-0.001,0.163-0.001,0.245,0
	C243.841,283.485,249.455,285.422,255.386,289.331z M179.124,70.874c4.971,0,9,4.029,9,9s-4.029,9-9,9
	c-12.864,0-23.33,10.466-23.33,23.33c0,4.971-4.029,9-9,9s-9-4.029-9-9C137.794,89.414,156.334,70.874,179.124,70.874z
	 M173.59,52.79c-30.608,0-55.51,24.902-55.51,55.51c0,4.971-4.029,9-9,9s-9-4.029-9-9c0-40.534,32.977-73.51,73.51-73.51
	c4.971,0,9,4.029,9,9S178.561,52.79,173.59,52.79z M302.611,34.79h-96.766c-4.971,0-9,4.029-9,9s4.029,9,9,9h96.766
	c30.609,0,55.511,24.902,55.511,55.51V357.34H118.081V140.555c0-4.971-4.029-9-9-9s-9,4.029-9,9V366.34
	c0,40.534,32.977,73.51,73.51,73.51h129.021c40.534,0,73.511-32.977,73.511-73.51V108.3C376.122,67.766,343.145,34.79,302.611,34.79
	z M302.611,421.851H173.59c-27.544,0-50.468-20.167-54.781-46.51h238.583C353.079,401.684,330.156,421.851,302.611,421.851z
	 M220.507,398.595c0-4.971,4.029-9,9-9h17.188c4.971,0,9,4.029,9,9s-4.029,9-9,9h-17.188
	C224.536,407.595,220.507,403.566,220.507,398.595z M81.729,109.862c0,4.971-4.029,9-9,9s-9-4.029-9-9
	C63.729,49.284,113.013,0,173.59,0c4.971,0,9,4.029,9,9s-4.029,9-9,9C122.938,18,81.729,59.209,81.729,109.862z"/>
<g>
</g>
<g>
</g>
<g>
</g>
<g>
</g>
<g>
</g>
<g>
</g>
<g>
</g>
<g>
</g>
<g>
</g>
<g>
</g>
<g>
</g>
<g>
</g>
<g>
</g>
<g>
</g>
<g>
</g>
</svg>
