<svg height="496pt" viewBox="0 0 496 496" width="496pt" xmlns="http://www.w3.org/2000/svg"><path d="m264 208h16v16h-16zm0 0"/><path d="m296 232h16v16h-16zm0 0"/><path d="m328 256h16v16h-16zm0 0"/><path d="m360 280h16v16h-16zm0 0"/><path d="m96 256c-17.648438 0-32 14.351562-32 32s14.351562 32 32 32 32-14.351562 32-32-14.351562-32-32-32zm0 48c-8.824219 0-16-7.175781-16-16s7.175781-16 16-16 16 7.175781 16 16-7.175781 16-16 16zm0 0"/><path d="m184 320c-17.648438 0-32 14.351562-32 32s14.351562 32 32 32 32-14.351562 32-32-14.351562-32-32-32zm0 48c-8.824219 0-16-7.175781-16-16s7.175781-16 16-16 16 7.175781 16 16-7.175781 16-16 16zm0 0"/><path d="m454.617188 480c-7.617188 0-11.050782-2.65625-15.808594-6.328125-5.570313-4.3125-12.503906-9.671875-25.585938-9.671875-13.078125 0-20.007812 5.359375-25.574218 9.671875-4.746094 3.671875-8.167969 6.328125-15.777344 6.328125-7.589844 0-11.023438-2.65625-15.765625-6.328125-5.570313-4.3125-12.488281-9.671875-25.5625-9.671875-13.070313 0-20 5.359375-25.566407 9.671875-4.746093 3.671875-8.167968 6.328125-15.777343 6.328125-7.589844 0-11.023438-2.65625-15.765625-6.328125-5.570313-4.3125-12.488282-9.671875-25.5625-9.671875-13.070313 0-20 5.359375-25.566406 9.671875-4.746094 3.671875-8.167969 6.328125-15.769532 6.328125-7.597656 0-11.023437-2.65625-15.765625-6.328125-5.570312-4.3125-12.488281-9.671875-25.5625-9.671875-13.070312 0-20 5.359375-25.558593 9.671875-4.746094 3.671875-8.160157 6.328125-15.761719 6.328125-7.582031 0-11-2.65625-15.742188-6.320312-5.558593-4.3125-12.480469-9.679688-25.542969-9.679688-13.074218 0-20 5.359375-25.5625 9.671875-4.742187 3.671875-8.167968 6.328125-15.757812 6.328125-7.585938 0-11.007812-2.65625-15.746094-6.328125-5.558594-4.304687-12.480468-9.671875-25.535156-9.671875v16c7.585938 0 11.007812 2.65625 15.742188 6.328125 5.5625 4.304687 12.480468 9.671875 25.539062 9.671875 13.0625 0 19.992188-5.359375 25.550781-9.671875 4.742188-3.671875 8.175781-6.328125 15.769531-6.328125 7.582032 0 11.007813 2.65625 15.75 6.328125 5.558594 4.3125 12.480469 9.671875 25.535157 9.671875 13.066406 0 19.992187-5.359375 25.554687-9.671875 4.742188-3.671875 8.175782-6.328125 15.765625-6.328125 7.59375 0 11.023438 2.65625 15.769531 6.328125 5.566407 4.3125 12.496094 9.671875 25.558594 9.671875 13.066406 0 19.992188-5.359375 25.5625-9.671875 4.742188-3.671875 8.175782-6.328125 15.773438-6.328125 7.59375 0 11.023437 2.65625 15.769531 6.328125 5.566406 4.3125 12.496094 9.671875 25.558594 9.671875 13.066406 0 20-5.359375 25.570312-9.671875 4.742188-3.671875 8.175781-6.328125 15.773438-6.328125 7.59375 0 11.023437 2.65625 15.769531 6.328125 5.566406 4.3125 12.496094 9.671875 25.558594 9.671875 13.066406 0 20-5.359375 25.570312-9.671875 4.742188-3.671875 8.175782-6.328125 15.78125-6.328125 7.617188 0 11.050782 2.65625 15.808594 6.328125 5.570312 4.3125 12.503906 9.671875 25.585938 9.671875 13.078124 0 20.007812-5.359375 25.574218-9.671875 4.761719-3.671875 8.191406-6.328125 15.808594-6.328125v-16c-13.078125 0-20.015625 5.359375-25.585938 9.671875-4.757812 3.671875-8.191406 6.328125-15.796874 6.328125zm0 0"/><path d="m461.695312 438.839844c1.480469-3.28125 2.304688-6.878906 2.304688-10.632813v-3.445312c0-8.058594-3.648438-15.515625-10.015625-20.449219l-21.984375-17.046875v-111.226563l-28.449219-21.671874 31.855469-39.816407-44.8125-33.597656-31.585938 39.480469-18.75-14.289063 55.4375-63.367187-44.832031-33.632813-55.167969 63.039063-38.214843-29.121094-98.167969 32.722656-85.578125-66.371094c-4.511719-3.484374-10.140625-5.414062-15.855469-5.414062-14.269531 0-25.878906 11.609375-25.878906 25.878906v202.152344l125.054688 92.785156c-8.039063 1.648438-13.144532 5.550782-17.40625 8.863282-4.746094 3.664062-8.160157 6.320312-15.761719 6.320312-7.582031 0-11-2.65625-15.742188-6.320312-5.558593-4.3125-12.480469-9.679688-25.542969-9.679688-13.074218 0-20 5.359375-25.5625 9.671875-4.742187 3.671875-8.167968 6.328125-15.757812 6.328125-7.585938 0-11.007812-2.65625-15.746094-6.328125-5.558594-4.304687-12.480468-9.671875-25.535156-9.671875v16c7.585938 0 11.007812 2.65625 15.742188 6.328125 5.5625 4.304687 12.480468 9.671875 25.539062 9.671875 13.0625 0 19.992188-5.359375 25.550781-9.671875 4.742188-3.671875 8.175781-6.328125 15.769531-6.328125 7.582032 0 11.007813 2.65625 15.75 6.328125 5.558594 4.3125 12.480469 9.671875 25.535157 9.671875 13.066406 0 19.992187-5.359375 25.554687-9.671875 4.742188-3.671875 8.175782-6.328125 15.765625-6.328125 7.59375 0 11.023438 2.65625 15.769531 6.328125 5.566407 4.3125 12.496094 9.671875 25.558594 9.671875 13.066406 0 19.992188-5.359375 25.5625-9.671875 4.742188-3.671875 8.175782-6.328125 15.773438-6.328125 7.59375 0 11.023437 2.65625 15.769531 6.328125 5.566406 4.3125 12.496094 9.671875 25.558594 9.671875 13.066406 0 20-5.359375 25.570312-9.671875 4.742188-3.671875 8.175781-6.328125 15.773438-6.328125 7.59375 0 11.023437 2.65625 15.769531 6.328125 5.566406 4.3125 12.496094 9.671875 25.558594 9.671875 13.066406 0 20-5.359375 25.570312-9.671875 4.742188-3.671875 8.175782-6.328125 15.78125-6.328125 7.617188 0 11.050782 2.65625 15.808594 6.328125 5.570312 4.3125 12.503906 9.671875 25.585938 9.671875 13.078124 0 20.007812-5.359375 25.574218-9.671875 4.761719-3.671875 8.191406-6.328125 15.808594-6.328125v-16c-13.078125 0-20.015625 5.359375-25.585938 9.671875-2.949218 2.28125-5.484374 4.0625-8.71875 5.167969zm-68.289062-235.792969 19.1875 14.402344-21.777344 27.214843-19.082031-14.535156zm-40.269531-72.199219 19.167969 14.367188-44.800782 51.199218-19.039062-14.503906zm-98.625 30.082032 161.488281 123.03125v90.894531l-241.472656-187.261719zm4.832031 264.742187c-2.136719-2.777344-3.34375-6.113281-3.34375-9.671875 0-8.824219 7.175781-16 16-16s16 7.175781 16 16-7.175781 16-16 16c-.289062 0-.558594-.054688-.847656-.0625-3.152344-2.351562-6.878906-4.730469-11.808594-6.265625zm153.878906-1.671875c-5.824218 0-10.382812 1.097656-14.191406 2.65625l-42.152344-32.488281-9.765625 12.671875 37.628907 29.007812c-3.476563 2.480469-6.886719 4.152344-12.871094 4.152344-7.589844 0-11.023438-2.65625-15.765625-6.328125-5.570313-4.3125-12.488281-9.671875-25.5625-9.671875-13.070313 0-20 5.359375-25.566407 9.671875-3.746093 2.902344-6.753906 5.105469-11.550781 5.929687 6.445313-5.859374 10.574219-14.226562 10.574219-23.601562 0-17.648438-14.351562-32-32-32s-32 14.351562-32 32c0 2.953125.535156 5.792969 1.296875 8.550781-8.945313 1.433594-14.457031 5.601563-18.992187 9.121094-4.746094 3.671875-8.167969 6.328125-15.769532 6.328125-.933594 0-1.648437-.152344-2.472656-.230469l-156.0625-115.792969v-147.710937l283.121094 218.238281 9.765625-12.671875-292.886719-225.769531v-26.183594c0-5.445312 4.433594-9.878906 9.878906-9.878906 2.175782 0 4.328125.734375 6.050782 2.070312l380.238281 294.882813c2.441406 1.886719 3.832031 4.726563 3.832031 7.808594v3.445312c0 3.554688-1.960938 6.714844-4.984375 8.464844-1.375-.886719-2.734375-1.871094-4.199219-3-5.578125-4.3125-12.511718-9.671875-25.59375-9.671875zm0 0"/><path d="m448 32c0-17.648438-14.351562-32-32-32s-32 14.351562-32 32h16c0-8.824219 7.175781-16 16-16s16 7.175781 16 16-7.175781 16-16 16h-128v16h128c17.648438 0 32-14.351562 32-32zm0 0"/><path d="m248 108c0-15.441406-12.558594-28-28-28s-28 12.558594-28 28v4h16v-4c0-6.617188 5.382812-12 12-12s12 5.382812 12 12-5.382812 12-12 12h-92v16h92c15.441406 0 28-12.558594 28-28zm0 0"/><path d="m440 160h16v-4c0-6.617188 5.382812-12 12-12s12 5.382812 12 12-5.382812 12-12 12h-68v16h68c15.441406 0 28-12.558594 28-28s-12.558594-28-28-28-28 12.558594-28 28zm0 0"/><path d="m256 48h16v16h-16zm0 0"/><path d="m224 48h16v16h-16zm0 0"/></svg>