<?xml version="1.0" encoding="iso-8859-1"?>
<!-- Generator: Adobe Illustrator 17.1.0, SVG Export Plug-In . SVG Version: 6.00 Build 0)  -->
<!DOCTYPE svg PUBLIC "-//W3C//DTD SVG 1.1//EN" "http://www.w3.org/Graphics/SVG/1.1/DTD/svg11.dtd">
<svg version="1.1" id="Capa_1" xmlns="http://www.w3.org/2000/svg" xmlns:xlink="http://www.w3.org/1999/xlink" x="0px" y="0px"
	 viewBox="0 0 427.283 427.283" style="enable-background:new 0 0 427.283 427.283;" xml:space="preserve">
<path id="XMLID_66_" d="M289.775,50.703c0-4.971,4.029-9,9-9h2.147c4.971,0,9,4.029,9,9s-4.029,9-9,9h-2.147
	C293.805,59.703,289.775,55.674,289.775,50.703z M322.875,205.288c-0.02,0.021-0.041,0.041-0.06,0.061l-14.202,14.201
	l-21.506-21.506l21.316-21.363c3.511-3.519,3.504-9.217-0.014-12.728c-3.519-3.51-9.217-3.504-12.728,0.014l-21.301,21.349
	l-56.601-56.601c-3.515-3.516-9.213-3.516-12.728,0c-3.515,3.515-3.515,9.213,0,12.728l90.835,90.835l-27.693,27.693
	L139.738,131.517l34.784-34.785c3.515-3.515,3.515-9.213,0-12.728c-3.515-3.515-9.212-3.515-12.728,0l-34.784,34.784L74.313,66.091
	c-3.515-3.516-9.213-3.516-12.728,0c-3.515,3.515-3.515,9.213,0,12.728l58.956,58.957c0.035,0.036,0.069,0.07,0.104,0.105
	c0.035,0.035,0.07,0.07,0.105,0.104l48.787,48.787l-29.563,29.563l-43.314-43.314c-3.514-3.515-9.213-3.514-12.728,0
	c-3.515,3.515-3.515,9.213,0,12.728l43.313,43.315l-37.002,37.002c-0.008,0.009-0.017,0.018-0.026,0.026
	c-0.009,0.009-0.018,0.018-0.026,0.026l-28.607,28.608c-3.515,3.515-3.515,9.213,0,12.728c3.515,3.515,9.213,3.515,12.728,0
	l22.269-22.27l22.268,22.27c1.758,1.758,4.061,2.636,6.364,2.636c2.303,0,4.606-0.879,6.364-2.636c3.515-3.515,3.515-9.213,0-12.728
	l-22.269-22.27l72.956-72.957l37.898,37.898l-44.733,44.733c-3.515,3.515-3.515,9.213,0,12.728c3.515,3.515,9.212,3.515,12.728,0
	l44.732-44.733l46.705,46.705c3.515,3.516,9.213,3.516,12.728,0c3.515-3.515,3.515-9.213,0-12.728l-11.403-11.404l48.318-48.318
	l23.612,23.613c3.516,3.516,9.213,3.515,12.728,0s3.515-9.213,0-12.728l-23.613-23.613l23.613-23.613
	c3.515-3.515,3.515-9.213,0-12.728c-3.515-3.515-9.213-3.515-12.728,0l-29.916,29.916
	C322.915,205.248,322.895,205.268,322.875,205.288z M410.245,383.938l-0.107-306.722c0-0.15-0.004-0.301-0.011-0.451
	c-0.908-17.979-13.174-33.182-30.521-37.83c-4.798-1.286-9.736,1.563-11.022,6.364c-1.286,4.801,1.563,9.736,6.364,11.022
	c9.557,2.561,16.6,11.237,17.19,21.144l0.096,274.438c-3.723-2.536-7.924-4.498-12.514-5.728l-92.831-24.883
	c-7.015-1.876-14.737-1.877-21.746,0.001l-114.15,30.586l-116.009-30.86V32.229l113.688,30.459c1.525,0.409,3.132,0.409,4.659,0
	l69.952-18.745c4.801-1.287,7.65-6.222,6.364-11.023c-1.287-4.801-6.221-7.653-11.023-6.364l-67.622,18.121L28.313,11.807
	c-2.703-0.726-5.589-0.151-7.808,1.553c-2.22,1.703-3.521,4.342-3.521,7.14V327.94c0,4.08,2.744,7.649,6.687,8.698l125.017,33.256
	c1.521,0.405,3.122,0.404,4.643-0.004l116.471-31.208c4.004-1.073,8.421-1.074,12.431,0l92.827,24.882
	c12.175,3.264,19.705,16.307,16.441,28.483c-3.316,12.381-16.095,19.754-28.483,16.441l-76.731-20.534V373.53l77.115,21.271
	c4.788,1.321,9.747-1.491,11.069-6.283c1.321-4.792-1.492-9.748-6.283-11.069l-88.508-24.413c-2.708-0.747-5.61-0.186-7.846,1.516
	c-2.235,1.702-3.547,4.351-3.547,7.16v33.149c0,4.075,2.737,7.641,6.673,8.694l83.405,22.32c3.561,0.953,7.138,1.408,10.661,1.408
	c18.217-0.001,34.933-12.173,39.862-30.58C410.033,392.433,410.46,388.134,410.245,383.938z M275.123,117.304
	c-16.037-31.515-25.976-53.649-25.976-66.602C249.147,22.745,271.892,0,299.85,0s50.703,22.745,50.703,50.702
	c0,12.953-9.938,35.087-25.972,66.601l-1.778,3.488c-1.2,2.353-2.331,4.57-3.359,6.61c-0.309,0.612-0.599,1.223-0.886,1.824
	c-2.314,4.852-6.621,13.883-18.708,13.883s-16.394-9.033-18.708-13.886c-0.286-0.601-0.577-1.21-0.884-1.82
	c-1.065-2.111-2.238-4.412-3.484-6.857L275.123,117.304z M267.147,50.702c0,11.238,16.831,44.314,24.018,58.438l1.646,3.23
	c1.258,2.469,2.443,4.792,3.518,6.924c0.368,0.73,0.717,1.46,1.061,2.18c0.576,1.209,1.426,2.991,1.941,3.603
	c0.213,0.029,0.828,0.029,1.04,0c0.515-0.612,1.364-2.393,1.94-3.602c0.344-0.721,0.693-1.452,1.063-2.184
	c1.039-2.06,2.182-4.3,3.394-6.678l1.771-3.475c7.186-14.123,24.015-47.198,24.015-58.438C332.553,32.67,317.882,18,299.85,18
	C281.817,18,267.147,32.67,267.147,50.702z"/>
<g>
</g>
<g>
</g>
<g>
</g>
<g>
</g>
<g>
</g>
<g>
</g>
<g>
</g>
<g>
</g>
<g>
</g>
<g>
</g>
<g>
</g>
<g>
</g>
<g>
</g>
<g>
</g>
<g>
</g>
</svg>
